# xmcd
#
# Track frame offsets: 
#        150
#        13473
#        31242
#        41292
#        51679
#        68416
#        85035
#        102528
#        115031
#        130443
#        146082
#        159046
#        168758
#        185431
#        204764
#        215601
#
# Disc length: 3038 seconds
#
# Revision: 0
# Processed by: cddbd v1.5.2PL0 Copyright (c) Steve Scherf et al.
# Submitted via: ExactAudioCopy v0.99pb4
#
DISCID=d70bdc10
DTITLE=Тризубий Стас - Я повертаюся. Vol. 3
DYEAR=2004
DGENRE=Art Song
TTITLE0=Біля парадного входу
TTITLE1=Метрополітен-вальс
TTITLE2=Ой, у хорі
TTITLE3=Усі на ровер!
TTITLE4=Офелія
TTITLE5=Я люблю тебе, як...
TTITLE6=Ласощі дитинства
TTITLE7=Пуркуа па?
TTITLE8=Атомне кохання
TTITLE9=Екскурсія по Києву
TTITLE10=Киць-киць
TTITLE11=Жири, ковбаси та сири
TTITLE12=Муходром
TTITLE13=Вертайся
TTITLE14=Украли літо
TTITLE15=Чоловік і жінка
EXTD=
EXTT0=
EXTT1=
EXTT2=
EXTT3=
EXTT4=
EXTT5=
EXTT6=
EXTT7=
EXTT8=
EXTT9=
EXTT10=
EXTT11=
EXTT12=
EXTT13=
EXTT14=
EXTT15=
PLAYORDER=
